<svg width="25" height="18" viewBox="0 0 25 18" fill="none" xmlns="http://www.w3.org/2000/svg">
<path d="M20.8396 8.01984C20.9593 7.54106 21.0071 7.05027 21.0071 6.55953C21.0071 2.94461 18.0625 0 14.4476 0C11.4312 0 8.79785 2.07078 8.07965 4.99145C7.48113 4.47676 6.71504 4.18949 5.92508 4.18949C4.11762 4.18949 2.64531 5.66176 2.64531 7.46922C2.64531 7.75648 2.68125 8.05574 2.76504 8.34301C1.08926 9.13305 5.28206e-10 10.8328 5.28206e-10 12.6881C-3.9062e-05 15.3454 2.16652 17.5 4.81187 17.5H19.7024C22.3477 17.5 24.5143 15.3454 24.5143 12.6881C24.5143 10.4856 22.9941 8.54652 20.8396 8.01984ZM7.56496 14.4357C7.56496 14.7589 7.28965 15.0342 6.96648 15.0342H5.75754C5.43434 15.0342 5.15906 14.7589 5.15906 14.4357V10.1026C5.15906 9.77941 5.43437 9.5041 5.75754 9.5041H6.96648C7.28969 9.5041 7.56496 9.77941 7.56496 10.1026V14.4357ZM11.0602 14.4357C11.0602 14.7589 10.7848 15.0342 10.4616 15.0342H9.25269C8.92949 15.0342 8.65422 14.7589 8.65422 14.4357V9.30062C8.65422 8.97742 8.92953 8.70215 9.25269 8.70215H10.4616C10.7848 8.70215 11.0602 8.97746 11.0602 9.30062V14.4357ZM14.5554 14.4357C14.5554 14.7589 14.2801 15.0342 13.9569 15.0342H12.7479C12.4247 15.0342 12.1494 14.7589 12.1494 14.4357V8.07969C12.1494 7.75648 12.4247 7.48121 12.7479 7.48121H13.9569C14.2801 7.48121 14.5554 7.75652 14.5554 8.07969V14.4357ZM17.9548 14.4357C17.9548 14.7589 17.6795 15.0342 17.3563 15.0342H16.2432C15.92 15.0342 15.6447 14.7589 15.6447 14.4357V5.66176C15.6447 5.32664 15.92 5.05129 16.2432 5.05129H17.3563C17.6795 5.05129 17.9548 5.3266 17.9548 5.66176V14.4357Z" fill="#037077"/>
</svg>
