<svg width="137" height="137" viewBox="0 0 137 137" fill="none" xmlns="http://www.w3.org/2000/svg">
<circle cx="68.5" cy="68.5" r="68.5" fill="#2E95B5"/>
<path d="M86.7548 66.062C86.6067 65.3681 86.1952 64.7262 85.726 64.4573C85.5779 64.3706 84.6561 64.2665 83.6684 64.2232C82.0141 64.1451 81.833 64.1104 81.3063 63.7895C80.475 63.2777 80.2528 62.7226 80.2446 61.2308C80.2363 58.3685 79.1088 55.7057 76.8783 53.3118C75.2899 51.6031 73.5121 50.4495 71.4874 49.799C71.0018 49.6428 69.9154 49.5908 66.2775 49.5474C60.5656 49.478 59.2981 49.5995 57.3557 50.4148C53.7755 51.9066 51.2076 55.0812 50.2693 59.1404C50.0965 59.9037 50.0554 61.1267 50.0142 68.1523C49.9648 76.956 50.0224 78.2484 50.541 79.9918C51.8249 84.2939 55.471 87.4771 59.1335 88.171C60.3516 88.4052 75.3722 88.4572 76.9113 88.2404C79.5861 87.8587 81.6849 86.7225 83.652 84.6061C85.0758 83.0709 85.9647 81.4143 86.5491 79.2198C86.9524 77.6933 86.9195 66.8339 86.7548 66.062ZM60.2446 60.5456C60.8866 59.8603 61.0677 59.8343 65.0841 59.8343C68.6973 59.8343 68.8207 59.843 69.3475 60.1292C70.1129 60.5369 70.4504 61.1093 70.4504 62.0287C70.4504 62.8527 70.1376 63.4339 69.438 63.9022C69.0594 64.1538 68.8372 64.1711 65.2981 64.1885C63.117 64.2058 61.3722 64.1538 61.1171 64.0844C59.7508 63.6767 59.2405 61.6124 60.2446 60.5456ZM76.0306 77.8754L74.8043 78.0836L68.4257 78.1616C62.8208 78.231 61.2405 78.127 60.9442 77.9882C60.3599 77.7193 59.8084 76.9734 59.7179 76.3055C59.6273 75.6723 59.9319 74.805 60.3928 74.3626C60.9771 73.8075 61.2323 73.7902 68.401 73.7815C75.7754 73.7728 75.7343 73.7728 76.4339 74.458C77.4298 75.4381 77.2158 77.1642 76.0306 77.8754Z" fill="white"/>
</svg>
