<svg width="26" height="28" viewBox="0 0 26 28" fill="none" xmlns="http://www.w3.org/2000/svg">
<path d="M25.7892 11.5992C25.6853 11.1123 25.3965 10.662 25.0673 10.4733C24.9634 10.4124 24.3166 10.3394 23.6236 10.309C22.4628 10.2542 22.3358 10.2299 21.9662 10.0047C21.3829 9.64562 21.227 9.25613 21.2212 8.20936C21.2155 6.20102 20.4243 4.33265 18.8593 2.65295C17.7447 1.45403 16.4974 0.644613 15.0767 0.188172C14.736 0.0786264 13.9737 0.042111 11.4212 0.0116817C7.41341 -0.0370053 6.52407 0.0481969 5.16119 0.620269C2.6491 1.66704 0.84733 3.89447 0.188989 6.74266C0.0677156 7.27822 0.0388411 8.13633 0.00996646 13.0659C-0.0246831 19.243 0.0157414 20.1498 0.379561 21.3731C1.28045 24.3917 3.83874 26.6252 6.40858 27.1121C7.26326 27.2764 17.8025 27.3129 18.8824 27.1608C20.7592 26.893 22.2319 26.0957 23.6121 24.6108C24.6111 23.5336 25.2348 22.3712 25.6448 20.8315C25.9278 19.7603 25.9047 12.1408 25.7892 11.5992ZM7.18819 7.72857C7.63863 7.24779 7.76568 7.22953 10.5838 7.22953C13.119 7.22953 13.2057 7.23562 13.5752 7.43645C14.1123 7.72249 14.3491 8.12415 14.3491 8.76926C14.3491 9.34741 14.1296 9.75517 13.6388 10.0838C13.3731 10.2603 13.2172 10.2725 10.734 10.2846C9.20364 10.2968 7.97935 10.2603 7.80033 10.2116C6.84169 9.92557 6.48365 8.47713 7.18819 7.72857ZM18.2645 19.8881L17.404 20.0342L12.9285 20.089C8.99574 20.1377 7.88695 20.0646 7.67906 19.9673C7.26904 19.7786 6.88212 19.2552 6.81859 18.7866C6.75507 18.3423 6.96874 17.7337 7.29214 17.4234C7.70216 17.0339 7.88118 17.0217 12.9111 17.0156C18.0855 17.0095 18.0566 17.0095 18.5475 17.4903C19.2462 18.178 19.0961 19.3891 18.2645 19.8881Z" fill="#07A1AB"/>
</svg>
