<svg width="103" height="102" viewBox="0 0 103 102" fill="none" xmlns="http://www.w3.org/2000/svg">
<path d="M51.5 0C23.0504 0 0 22.8266 0 51C0 79.1734 23.0504 102 51.5 102C79.9496 102 103 79.1734 103 51C103 22.8266 79.9496 0 51.5 0ZM51.5 19.7419C61.5923 19.7419 69.7742 27.8444 69.7742 37.8387C69.7742 47.8331 61.5923 55.9355 51.5 55.9355C41.4077 55.9355 33.2258 47.8331 33.2258 37.8387C33.2258 27.8444 41.4077 19.7419 51.5 19.7419ZM51.5 90.4839C39.3103 90.4839 28.3873 85.0137 21.0776 76.4589C24.9817 69.179 32.6236 64.1613 41.5323 64.1613C42.0306 64.1613 42.529 64.2435 43.0067 64.3875C45.7062 65.2512 48.5304 65.8064 51.5 65.8064C54.4696 65.8064 57.3145 65.2512 59.9933 64.3875C60.471 64.2435 60.9694 64.1613 61.4677 64.1613C70.3764 64.1613 78.0183 69.179 81.9224 76.4589C74.6127 85.0137 63.6897 90.4839 51.5 90.4839Z" fill="#07A1AB"/>
</svg>
